<?xml version="1.0" standalone="no"?>
<!DOCTYPE svg PUBLIC "-//W3C//DTD SVG 20010904//EN"
 "http://www.w3.org/TR/2001/REC-SVG-20010904/DTD/svg10.dtd">
<svg version="1.0" xmlns="http://www.w3.org/2000/svg"
 width="700.000000pt" height="700.000000pt" viewBox="0 0 700.000000 700.000000"
 preserveAspectRatio="xMidYMid meet">
<metadata>
Created by potrace 1.14, written by Peter Selinger 2001-2017
</metadata>
<g transform="translate(0.000000,700.000000) scale(0.100000,-0.100000)"
fill="#000000" stroke="none">
<path d="M3158 6995 c-1 -1 -70 -6 -151 -10 -82 -3 -158 -8 -170 -10 -12 -2
-60 -6 -107 -10 -99 -7 -151 -12 -295 -30 -16 -2 -52 -7 -80 -10 -73 -9 -115
-15 -155 -21 -19 -3 -48 -8 -64 -10 -15 -2 -35 -5 -45 -8 -9 -3 -36 -8 -61
-11 -25 -4 -79 -13 -120 -21 -41 -8 -86 -17 -100 -19 -62 -9 -361 -79 -496
-116 -588 -159 -769 -280 -845 -564 -17 -64 -18 -101 -14 -460 2 -214 6 -408
9 -430 2 -22 7 -84 11 -137 3 -54 8 -106 9 -115 2 -10 7 -56 10 -101 8 -97 11
-119 31 -277 3 -17 11 -75 19 -130 9 -55 18 -118 21 -140 3 -22 8 -47 10 -55
2 -8 7 -31 10 -50 12 -71 47 -237 67 -315 11 -44 21 -88 23 -97 43 -214 245
-805 373 -1088 13 -30 31 -71 40 -90 71 -164 296 -583 373 -697 16 -23 29 -46
29 -51 0 -6 4 -12 8 -14 4 -1 23 -28 42 -59 82 -130 278 -396 413 -559 133
-159 221 -255 417 -450 176 -176 252 -248 375 -351 22 -19 42 -36 45 -39 14
-15 305 -243 370 -291 169 -123 222 -148 324 -155 98 -6 152 13 271 92 55 37
102 70 105 73 3 4 21 18 40 31 19 14 42 30 50 37 8 7 56 44 105 83 346 274
688 605 966 935 19 22 36 42 39 45 3 3 29 34 58 70 29 36 61 74 70 85 79 96
300 429 442 664 254 423 458 903 614 1443 25 86 48 167 50 180 3 13 12 50 21
83 8 33 17 69 19 80 3 11 18 81 35 156 17 74 32 149 35 165 3 16 12 72 21 124
10 52 19 106 20 120 2 14 11 72 19 130 9 58 18 128 21 155 3 28 7 66 10 85 2
19 6 64 10 100 3 36 8 81 10 100 4 36 12 163 21 325 3 50 7 241 9 425 l4 335
-27 60 c-85 194 -194 291 -457 404 -136 59 -432 155 -570 186 -237 54 -528
108 -685 130 -184 24 -226 29 -385 45 -55 6 -120 12 -145 15 -25 2 -90 7 -145
11 -55 3 -122 8 -150 10 -61 5 -822 14 -827 9z m867 -249 c251 -16 289 -18
420 -31 59 -6 95 -10 165 -20 19 -2 57 -7 83 -10 40 -4 220 -33 317 -51 14 -2
39 -6 55 -9 17 -3 37 -8 45 -10 8 -2 31 -7 50 -10 99 -16 423 -103 590 -160
300 -101 457 -177 511 -248 67 -89 70 -115 64 -442 -3 -159 -8 -312 -9 -340
-2 -27 -7 -105 -10 -173 -4 -67 -9 -132 -11 -145 -2 -12 -6 -58 -10 -102 -4
-44 -9 -91 -10 -105 -2 -14 -6 -52 -9 -86 -4 -33 -8 -71 -11 -85 -2 -13 -6
-46 -10 -74 -3 -27 -10 -75 -15 -105 -5 -30 -12 -73 -15 -95 -8 -52 -13 -84
-20 -115 -2 -14 -7 -37 -9 -53 -3 -15 -7 -35 -10 -45 -3 -9 -7 -34 -10 -54
-21 -140 -124 -537 -204 -783 -122 -374 -310 -797 -499 -1125 -78 -135 -229
-371 -298 -465 -122 -168 -308 -404 -386 -490 -121 -133 -170 -185 -284 -299
-172 -173 -267 -260 -460 -422 -221 -186 -456 -356 -508 -369 -31 -8 -93 18
-179 76 -56 38 -325 243 -338 258 -3 3 -48 42 -100 86 -52 44 -100 84 -106 90
-6 5 -46 42 -90 80 -97 87 -337 327 -425 426 -612 686 -1025 1423 -1295 2311
-40 132 -135 507 -148 583 -5 29 -22 115 -33 165 -2 14 -6 34 -8 45 -1 11 -5
36 -9 55 -9 50 -14 87 -21 139 -4 25 -10 69 -15 96 -5 28 -12 75 -15 106 -3
31 -7 65 -9 76 -3 11 -7 57 -11 104 -4 46 -9 93 -11 103 -2 11 -6 62 -10 115
-3 53 -8 114 -9 136 -12 166 -19 384 -19 575 -1 212 0 228 21 273 54 117 120
161 388 262 150 57 469 156 575 180 8 1 78 17 155 34 135 30 321 64 415 76 25
3 61 8 80 11 100 14 214 26 390 40 36 2 90 7 120 9 30 3 125 7 210 11 85 4
156 7 157 8 6 5 754 -2 838 -8z"/>
<path d="M3175 6537 c-76 -35 -132 -112 -156 -214 -6 -26 -11 -98 -11 -158 0
-160 34 -277 97 -335 24 -23 35 -25 110 -25 79 0 86 2 116 30 62 59 95 132
105 230 6 56 5 184 -1 220 -3 17 -8 46 -11 65 -9 53 -53 128 -97 162 -44 36
-106 46 -152 25z m104 -144 c54 -68 57 -369 5 -448 -19 -29 -60 -43 -83 -28
-33 20 -59 74 -66 134 -12 106 -9 251 8 289 37 87 93 109 136 53z"/>
<path d="M3556 6525 c-5 -13 -11 -609 -7 -692 1 -21 6 -23 54 -23 l53 0 -1
123 c-1 164 1 177 31 177 32 0 50 -32 105 -184 l44 -125 63 0 c34 0 62 2 62 4
0 5 -94 281 -104 305 -4 10 7 29 28 52 54 57 70 95 69 164 0 115 -52 180 -157
199 -61 12 -235 12 -240 0z m164 -100 c93 -14 141 -70 115 -133 -16 -36 -57
-60 -119 -68 -42 -6 -45 -5 -52 20 -7 31 -12 166 -6 183 2 7 7 11 11 9 3 -2
27 -7 51 -11z"/>
<path d="M4195 6511 c-116 -28 -160 -135 -158 -381 1 -242 69 -349 222 -353
111 -3 165 43 190 161 15 71 14 164 -1 185 -14 19 -24 22 -120 32 -75 8 -73
11 -70 -64 2 -40 0 -39 35 -45 40 -7 47 -14 47 -48 0 -45 -28 -95 -59 -106
-96 -34 -160 150 -126 362 13 80 35 130 66 146 26 15 76 -13 99 -55 14 -25 24
-31 59 -33 64 -5 74 9 51 70 -32 84 -81 124 -162 132 -24 2 -57 1 -73 -3z"/>
<path d="M2657 6504 c-1 -1 -29 -5 -61 -8 -33 -3 -60 -7 -62 -9 -1 -1 -4 -165
-7 -364 l-4 -362 51 5 c167 14 246 35 286 75 43 44 62 94 62 169 1 68 -8 98
-43 141 l-21 26 28 53 c52 100 26 218 -56 255 -30 14 -163 28 -173 19z m116
-132 c21 -21 29 -74 17 -106 -8 -23 -35 -37 -102 -55 -28 -7 -38 -6 -39 2 -6
45 -3 173 3 178 17 11 103 -2 121 -19z m-17 -276 c27 -10 54 -57 54 -96 0 -70
-47 -110 -130 -110 l-37 0 2 83 c1 45 5 92 9 104 9 29 50 37 102 19z"/>
<path d="M4569 6479 c-1 -2 -2 -167 -3 -366 -2 -410 -12 -364 79 -367 l39 -1
1 148 c1 91 6 152 12 158 12 12 139 4 162 -10 8 -6 13 -53 15 -161 2 -136 5
-154 21 -166 10 -8 27 -14 37 -14 40 0 42 28 38 521 l-1 197 -31 6 c-70 14
-68 18 -67 -111 1 -180 5 -165 -38 -159 -110 17 -130 23 -138 44 -4 9 -9 68
-11 131 -3 110 -9 132 -36 137 -7 1 -28 6 -45 9 -18 4 -34 6 -34 4z"/>
<path d="M2317 6463 c-9 -2 -24 -18 -33 -34 -14 -28 -108 -319 -123 -384 -7
-27 -10 -21 -35 60 -40 129 -86 267 -98 288 -8 15 -17 17 -54 12 -24 -3 -49
-8 -56 -10 -10 -4 -13 -76 -12 -325 1 -176 5 -336 8 -355 6 -30 11 -35 35 -35
60 0 64 11 62 183 -1 88 3 158 8 161 10 7 25 -31 86 -214 21 -63 40 -117 42
-119 7 -9 14 11 53 154 23 83 42 155 44 160 17 62 27 95 30 95 1 0 4 -53 5
-117 3 -154 8 -230 15 -241 4 -7 77 4 94 14 11 7 15 104 16 389 l1 320 -35 2
c-19 0 -43 -1 -53 -4z"/>
<path d="M5112 6026 c0 -406 -6 -372 73 -371 48 0 44 -34 44 350 0 247 -2 315
-8 356 -1 6 -80 29 -100 29 -6 0 -9 -132 -9 -364z"/>
<path d="M1575 6316 c-20 -9 -34 -25 -43 -49 -15 -43 -171 -720 -167 -725 2
-2 28 1 59 8 64 13 65 15 81 142 4 33 14 63 24 72 20 18 121 40 132 29 4 -5
11 -24 14 -43 10 -60 27 -109 40 -114 7 -2 33 0 59 6 53 11 52 1 19 137 -8 36
-16 72 -18 80 -5 29 -86 345 -97 381 -30 99 -38 104 -103 76z m48 -353 c5 -31
3 -45 -9 -57 -17 -18 -50 -21 -58 -7 -4 5 4 51 16 103 l21 93 12 -45 c6 -25
15 -64 18 -87z"/>
<path d="M5361 6320 c-11 -6 -8 -686 2 -697 4 -4 24 -12 45 -20 59 -20 62 -13
68 203 4 104 7 190 8 192 2 1 31 -71 66 -160 114 -291 173 -383 201 -310 9 23
11 207 7 624 -1 74 -2 76 -27 82 -14 3 -36 8 -48 12 -21 6 -21 5 -23 -162 0
-93 -5 -173 -9 -177 -12 -12 -18 0 -81 158 -65 160 -92 215 -118 238 -20 19
-73 29 -91 17z"/>
<path d="M1031 6147 l-53 -20 7 -296 c8 -368 10 -409 18 -417 7 -8 178 53 265
93 38 18 52 30 53 46 2 29 -2 61 -7 66 -3 3 -48 -10 -100 -28 -53 -18 -99 -30
-102 -26 -9 8 -9 37 -12 348 -1 136 -5 249 -9 250 -3 2 -30 -5 -60 -16z"/>
<path d="M5904 5799 l1 -363 55 -17 c30 -9 56 -16 57 -15 3 2 5 491 4 649 -1
75 -2 78 -28 88 -16 6 -42 13 -59 16 l-30 5 0 -363z"/>
<path d="M3499 5615 c-2 -2 -20 -6 -41 -9 -53 -8 -137 -42 -190 -75 -110 -70
-142 -182 -66 -229 78 -48 197 -62 633 -77 367 -12 448 -20 512 -54 84 -45
114 -87 115 -163 1 -87 -40 -148 -98 -148 -54 0 -263 54 -428 110 -182 62
-213 67 -254 46 -28 -14 -158 -114 -207 -159 -32 -29 -185 -131 -248 -165
-239 -130 -302 -225 -347 -515 -13 -83 -46 -158 -131 -297 -104 -168 -143
-276 -155 -425 -6 -72 -31 -187 -59 -265 -30 -83 -46 -171 -50 -273 -9 -184
-14 -217 -49 -296 -32 -73 -42 -110 -66 -250 -11 -63 -49 -127 -117 -201 -13
-14 -33 -44 -44 -68 -12 -24 -40 -69 -64 -100 -57 -76 -75 -114 -75 -156 0
-49 14 -52 55 -11 20 19 38 35 41 35 3 0 2 -24 -1 -54 -5 -43 -4 -54 9 -59 33
-13 152 13 185 41 12 9 34 53 50 97 15 45 35 92 44 105 18 28 23 51 37 167 10
91 12 95 80 197 31 45 63 114 91 191 62 175 219 468 248 463 27 -6 53 -75 57
-155 7 -114 12 -137 34 -155 19 -17 19 -18 -10 -89 -17 -39 -30 -77 -30 -83 0
-19 -40 -89 -69 -119 -14 -16 -49 -44 -76 -62 -62 -42 -153 -132 -175 -174
-17 -34 -14 -101 6 -135 11 -19 13 -19 38 -3 35 24 39 22 33 -16 -8 -51 0 -56
62 -40 66 16 116 53 135 96 7 18 42 90 77 162 55 111 75 140 142 210 43 44 92
106 109 138 51 94 137 157 154 112 10 -24 -59 -155 -120 -229 -66 -80 -97
-136 -98 -177 -1 -43 16 -56 38 -30 25 29 32 26 36 -11 3 -29 7 -33 35 -36 84
-8 174 48 194 121 6 23 22 63 36 90 18 36 25 68 27 125 3 91 28 161 50 143 19
-16 58 -100 86 -185 12 -37 35 -82 50 -100 l28 -31 114 3 c62 2 124 5 138 6
14 2 35 4 47 5 56 3 117 94 129 191 4 30 8 60 9 65 15 74 43 131 87 181 34 38
194 164 209 164 10 0 91 -166 109 -224 8 -25 10 -59 6 -95 -7 -56 -13 -109
-20 -199 -2 -26 -12 -78 -22 -115 l-19 -68 42 -40 c49 -46 65 -48 87 -14 21
32 34 32 46 0 12 -31 30 -25 64 20 29 38 32 72 11 131 -8 23 -16 77 -19 120
-3 44 -9 106 -15 138 -12 69 -8 182 10 277 13 74 9 100 -36 207 -15 35 -24 66
-21 69 3 4 45 -7 92 -22 161 -52 260 -39 344 47 28 28 48 53 45 56 -7 7 -13 8
-105 16 -101 10 -133 28 -258 148 l-52 51 0 86 c0 93 0 95 -25 223 -9 49 -14
100 -11 115 10 56 17 88 22 105 23 77 24 143 4 222 -19 75 -31 101 -94 199
-21 32 -46 84 -57 115 -10 30 -37 87 -58 126 -21 39 -37 78 -35 86 1 8 10 44
19 79 23 86 23 186 2 232 -10 19 -41 58 -70 86 -91 90 -162 103 -612 118 -430
14 -583 31 -615 70 -14 17 10 69 41 86 39 21 116 16 174 -11 22 -10 138 -38
188 -46 98 -15 285 5 290 31 1 6 -28 17 -64 26 -76 18 -92 26 -83 41 7 10 86
6 214 -12 92 -13 120 -12 120 4 0 22 -133 78 -245 102 -109 25 -176 32 -271
33 -62 0 -114 -2 -115 -4z m216 -151 c79 -20 87 -30 21 -28 -54 2 -96 17 -96
34 0 13 5 13 75 -6z"/>
</g>
</svg>
